<?xml version="1.0" encoding="utf-8"?>
<!-- Generator: Adobe Illustrator 27.4.1, SVG Export Plug-In . SVG Version: 6.00 Build 0)  -->
<svg version="1.1" id="Layer_1" xmlns="http://www.w3.org/2000/svg" xmlns:xlink="http://www.w3.org/1999/xlink" x="0px" y="0px"
	 viewBox="0 0 170 40" style="enable-background:new 0 0 170 40;" xml:space="preserve">
<style type="text/css">
	.st0{fill:#FFFFFF;}
</style>
<g>
	<path class="st0" d="M7.84,22.72l6.12-5.27c0.47-0.57,0.9-1.09,1.29-1.57c0.39-0.48,0.67-0.72,0.85-0.72c0.16,0,0.3,0.04,0.42,0.13
		c0.13,0.09,0.19,0.22,0.19,0.4c0,0.37-0.54,0.83-1.61,1.38c0.62,0.94,1.07,1.76,1.35,2.46c0.27,0.7,0.44,1.59,0.5,2.67
		c-0.06,0.66-0.14,1.22-0.23,1.67c0.7,0.18,1.34,0.16,1.92-0.04c0.58-0.21,1.37-0.82,2.39-1.83v0.5c-0.78,0.98-1.5,1.58-2.17,1.82
		c-0.66,0.23-1.44,0.22-2.31-0.03c-0.47,1.05-1.23,1.96-2.29,2.71s-2.14,1.31-3.25,1.67s-2.07,0.54-2.87,0.54
		c-0.76,0-1.38-0.15-1.86-0.45c-0.48-0.3-0.72-0.73-0.72-1.27c0-0.49,0.14-0.88,0.42-1.19c0.28-0.3,0.7-0.45,1.25-0.45
		c0.35,0,0.64,0.09,0.86,0.28s0.34,0.43,0.34,0.75c0,0.25-0.12,0.48-0.37,0.67s-0.5,0.29-0.78,0.29c-0.37,0-0.64-0.3-0.82-0.91
		c-0.25,0.18-0.38,0.44-0.38,0.79c0,0.21,0.2,0.45,0.6,0.7c0.4,0.25,0.86,0.38,1.39,0.38c1.04,0,2.13-0.44,3.28-1.33
		c1.15-0.89,2.11-2.01,2.89-3.35c0.77-1.35,1.16-2.65,1.16-3.9c0-0.9-0.28-1.82-0.85-2.75l-6.71,5.74V22.72z"/>
	<path class="st0" d="M32.92,21.98v0.5c-2.19,2.19-4.19,3.85-6.01,5s-3.65,1.71-5.51,1.71c-1.64,0-2.46-0.94-2.46-2.81
		c0-1.56,0.59-2.93,1.77-4.12s2.57-2.09,4.16-2.72c1.59-0.63,2.89-0.95,3.88-0.95c0.57,0,1.01,0.13,1.33,0.4s0.48,0.61,0.48,1.04
		c0,0.66-0.36,1.27-1.08,1.83s-1.73,1.02-3.02,1.38s-2.8,0.57-4.54,0.63c-1.48,1.68-2.23,2.96-2.23,3.84c0,0.31,0.16,0.57,0.48,0.78
		s0.73,0.31,1.22,0.31C24.55,28.78,28.39,26.51,32.92,21.98z M22.52,23.3c1.62,0,2.99-0.21,4.1-0.62s1.96-0.9,2.53-1.46
		s0.86-1.03,0.86-1.38c0-0.57-0.33-0.85-1-0.85c-0.88,0-1.9,0.39-3.08,1.16C24.78,20.92,23.63,21.97,22.52,23.3z"/>
	<path class="st0" d="M32.16,23.18v-0.47c2.97-2.75,5.05-4.13,6.24-4.13c0.66,0,1,0.42,1,1.26c0,0.66-0.21,1.32-0.62,1.96
		s-1.24,1.77-2.49,3.37c2.42-2.01,4.52-3.61,6.3-4.8c1.78-1.19,3.3-1.79,4.57-1.79c0.66,0,1,0.46,1,1.38c0,0.9-0.31,1.79-0.94,2.68
		s-1.65,1.85-3.08,2.89c-1.52,1.15-2.29,1.97-2.29,2.46c0,0.2,0.09,0.38,0.28,0.54s0.38,0.25,0.57,0.25c0.68,0,1.59-0.38,2.71-1.13
		s2.35-1.71,3.68-2.87s2.4-2.09,3.22-2.8v0.5c-1.19,1.11-2.35,2.15-3.49,3.12s-2.26,1.81-3.38,2.52s-2.06,1.07-2.8,1.07
		c-0.47,0-0.81-0.16-1.01-0.47s-0.31-0.63-0.31-0.97c0-0.74,0.29-1.58,0.88-2.5s1.4-1.83,2.43-2.71c1.19-1.05,2.02-1.9,2.48-2.53
		c0.46-0.63,0.33-0.95-0.4-0.95c-0.92,0-2.3,0.62-4.16,1.86s-3.59,2.55-5.21,3.93s-3.15,2.73-4.6,4.06h-2.29l3.9-4.39
		c2.85-3.18,4.28-4.92,4.28-5.21c0-0.19-0.12-0.29-0.35-0.29C37.42,19,35.38,20.39,32.16,23.18z"/>
	<path class="st0" d="M61.63,14.48l4.86-5.51h2.52l-4.86,5.51h3.72l-0.32,0.5h-3.78l-7.12,8.09c-0.78,0.86-1.65,1.89-2.59,3.11
		s-1.42,1.88-1.42,1.99c0,0.41,0.21,0.62,0.64,0.62c1.6,0,5.04-2.27,10.31-6.8v0.5l-1.55,1.38c-4.04,3.55-6.98,5.33-8.82,5.33
		c-0.45,0-0.8-0.13-1.05-0.38s-0.38-0.55-0.38-0.88c0-0.78,0.55-2.08,1.66-3.9s3.27-4.34,6.49-7.56c-1.99,1.33-4.77,3.56-8.32,6.71
		v-0.47c1.19-1.13,2.67-2.42,4.42-3.85s3.48-2.73,5.16-3.88h-2.14l0.41-0.5H61.63z"/>
	<path class="st0" d="M62.95,23.13l-0.06-0.47c1.48-1.35,3.22-2.63,5.21-3.84h2.64l-6.91,7.73c-0.49,0.55-0.8,1.05-0.94,1.52
		s-0.02,0.7,0.35,0.7c0.98,0,2.43-0.72,4.37-2.17s3.72-2.97,5.36-4.57v0.5c-1.89,1.82-3.72,3.38-5.48,4.69s-3.19,1.96-4.31,1.96
		c-0.64,0-0.97-0.34-0.97-1.03c0-2.03,1.58-4.63,4.75-7.79c0.18-0.18,0.34-0.35,0.48-0.51c0.15-0.17,0.29-0.32,0.42-0.45
		C66.11,20.46,64.47,21.7,62.95,23.13z M73.09,12.64c0.43,0,0.64,0.26,0.64,0.79c0,0.31-0.09,0.57-0.26,0.76
		c-0.18,0.2-0.4,0.29-0.67,0.29c-0.53,0-0.79-0.23-0.79-0.7c0-0.27,0.11-0.53,0.32-0.78C72.54,12.76,72.79,12.64,73.09,12.64z"/>
	<path class="st0" d="M72.24,23.18v-0.53c1.45-1.31,2.66-2.31,3.63-3.02s1.85-1.05,2.61-1.05c0.62,0,0.94,0.42,0.94,1.26
		c0,0.7-0.21,1.38-0.62,2.04s-1.1,1.6-2.08,2.83c2.73-2.25,4.79-3.83,6.17-4.75c1.38-0.92,2.56-1.38,3.56-1.38
		c0.72,0,1.08,0.33,1.08,1c0,1.33-0.98,3.15-2.93,5.48l0.82-0.62c1.31-0.96,2.56-1.88,3.75-2.75s2.34-1.62,3.44-2.21
		c1.1-0.6,1.99-0.89,2.65-0.89c0.31,0,0.56,0.12,0.75,0.37c0.19,0.24,0.28,0.6,0.28,1.07c0,0.9-0.3,1.78-0.89,2.65
		s-1.62,1.84-3.06,2.92c-0.59,0.43-1.14,0.93-1.67,1.49s-0.79,0.95-0.79,1.14c0,0.37,0.27,0.56,0.82,0.56c0.86,0,2-0.52,3.41-1.57
		s3.52-2.75,6.31-5.11v0.5c-2.66,2.29-4.69,3.96-6.11,5.01s-2.66,1.58-3.74,1.58c-0.76,0-1.14-0.38-1.14-1.14
		c0-0.84,0.28-1.69,0.85-2.55s1.52-1.92,2.87-3.19c1.56-1.46,2.34-2.39,2.34-2.78c0-0.35-0.16-0.53-0.47-0.53
		c-0.51,0-1.61,0.54-3.31,1.63s-3.58,2.42-5.64,4.01c-2.06,1.59-3.75,3.01-5.08,4.26h-2.46l4.54-4.98c0.31-0.33,0.79-0.83,1.42-1.49
		s1.18-1.26,1.63-1.8c0.45-0.54,0.67-0.9,0.67-1.1c0-0.1-0.04-0.2-0.13-0.31c-0.09-0.11-0.22-0.16-0.4-0.16
		c-1.09,0-2.72,0.85-4.89,2.55s-4.72,3.87-7.65,6.5l-0.85,0.79h-2.52l6.18-6.91c1.41-1.45,2.11-2.3,2.11-2.58
		c0-0.27-0.12-0.41-0.35-0.41c-0.33,0-0.83,0.21-1.49,0.63c-0.66,0.42-1.39,0.94-2.17,1.57S73.06,22.48,72.24,23.18z"/>
	<path class="st0" d="M99.78,23.13l-0.06-0.47c1.48-1.35,3.22-2.63,5.21-3.84h2.64l-6.91,7.73c-0.49,0.55-0.8,1.05-0.94,1.52
		s-0.02,0.7,0.35,0.7c0.98,0,2.43-0.72,4.37-2.17s3.72-2.97,5.36-4.57v0.5c-1.89,1.82-3.72,3.38-5.48,4.69s-3.19,1.96-4.31,1.96
		c-0.64,0-0.97-0.34-0.97-1.03c0-2.03,1.58-4.63,4.75-7.79c0.18-0.18,0.34-0.35,0.48-0.51c0.15-0.17,0.29-0.32,0.42-0.45
		C102.94,20.46,101.3,21.7,99.78,23.13z M109.91,12.64c0.43,0,0.64,0.26,0.64,0.79c0,0.31-0.09,0.57-0.26,0.76
		c-0.18,0.2-0.4,0.29-0.67,0.29c-0.53,0-0.79-0.23-0.79-0.7c0-0.27,0.11-0.53,0.32-0.78C109.37,12.76,109.62,12.64,109.91,12.64z"/>
	<path class="st0" d="M121.66,21.98v0.5c-2.19,2.19-4.19,3.85-6.01,5s-3.65,1.71-5.51,1.71c-1.64,0-2.46-0.94-2.46-2.81
		c0-1.56,0.59-2.93,1.77-4.12s2.57-2.09,4.16-2.72c1.59-0.63,2.89-0.95,3.88-0.95c0.57,0,1.01,0.13,1.33,0.4s0.48,0.61,0.48,1.04
		c0,0.66-0.36,1.27-1.08,1.83s-1.73,1.02-3.02,1.38s-2.8,0.57-4.54,0.63c-1.48,1.68-2.23,2.96-2.23,3.84c0,0.31,0.16,0.57,0.48,0.78
		s0.73,0.31,1.22,0.31C113.29,28.78,117.13,26.51,121.66,21.98z M111.26,23.3c1.62,0,2.99-0.21,4.1-0.62s1.96-0.9,2.53-1.46
		s0.86-1.03,0.86-1.38c0-0.57-0.33-0.85-1-0.85c-0.88,0-1.9,0.39-3.08,1.16C113.52,20.92,112.37,21.97,111.26,23.3z"/>
	<path class="st0" d="M120.9,23.18v-0.47c2.97-2.75,5.05-4.13,6.24-4.13c0.66,0,1,0.42,1,1.26c0,0.66-0.21,1.32-0.62,1.96
		s-1.24,1.77-2.49,3.37c2.42-2.01,4.52-3.61,6.3-4.8c1.78-1.19,3.3-1.79,4.57-1.79c0.66,0,1,0.46,1,1.38c0,0.9-0.31,1.79-0.94,2.68
		s-1.65,1.85-3.08,2.89c-1.52,1.15-2.29,1.97-2.29,2.46c0,0.2,0.09,0.38,0.28,0.54s0.38,0.25,0.57,0.25c0.68,0,1.59-0.38,2.71-1.13
		s2.35-1.71,3.68-2.87s2.4-2.09,3.22-2.8v0.5c-1.19,1.11-2.35,2.15-3.49,3.12s-2.26,1.81-3.38,2.52s-2.06,1.07-2.8,1.07
		c-0.47,0-0.81-0.16-1.01-0.47s-0.31-0.63-0.31-0.97c0-0.74,0.29-1.58,0.88-2.5s1.4-1.83,2.43-2.71c1.19-1.05,2.02-1.9,2.48-2.53
		c0.46-0.63,0.33-0.95-0.4-0.95c-0.92,0-2.3,0.62-4.16,1.86s-3.59,2.55-5.21,3.93s-3.15,2.73-4.6,4.06h-2.29l3.9-4.39
		c2.85-3.18,4.28-4.92,4.28-5.21c0-0.19-0.12-0.29-0.35-0.29C126.16,19,124.12,20.39,120.9,23.18z"/>
	<path class="st0" d="M150.37,14.48l4.86-5.51h2.52l-4.86,5.51h3.72l-0.32,0.5h-3.78l-7.12,8.09c-0.78,0.86-1.65,1.89-2.59,3.11
		s-1.42,1.88-1.42,1.99c0,0.41,0.21,0.62,0.64,0.62c1.6,0,5.04-2.27,10.31-6.8v0.5l-1.55,1.38c-4.04,3.55-6.98,5.33-8.82,5.33
		c-0.45,0-0.8-0.13-1.05-0.38s-0.38-0.55-0.38-0.88c0-0.78,0.55-2.08,1.66-3.9s3.27-4.34,6.49-7.56c-1.99,1.33-4.77,3.56-8.32,6.71
		v-0.47c1.19-1.13,2.67-2.42,4.42-3.85s3.48-2.73,5.16-3.88h-2.14l0.41-0.5H150.37z"/>
	<path class="st0" d="M164.81,21.98v0.5c-1.09,1.31-2.31,1.96-3.66,1.96c-0.14-0.02-0.27-0.04-0.41-0.06s-0.29-0.04-0.47-0.06
		c-3.12,3.24-5.83,4.86-8.12,4.86c-0.43,0-0.83-0.11-1.19-0.34s-0.63-0.52-0.82-0.89s-0.28-0.8-0.28-1.29
		c0-1.31,0.58-2.59,1.73-3.84s2.54-2.27,4.17-3.06s3.06-1.19,4.29-1.19c1.33,0,1.99,0.62,1.99,1.85c0,1-0.48,2.16-1.44,3.49
		c0.2,0.08,0.41,0.12,0.64,0.12C162.5,24.03,163.68,23.35,164.81,21.98z M160.16,19c-1.09,0-2.35,0.62-3.76,1.86
		s-2.69,2.6-3.81,4.09s-1.68,2.4-1.68,2.75c0,0.31,0.14,0.57,0.42,0.78s0.64,0.31,1.07,0.31c1.04,0,2.28-0.51,3.74-1.54
		s2.74-2.24,3.85-3.63s1.67-2.5,1.67-3.3c0-0.39-0.14-0.71-0.42-0.95C160.94,19.12,160.59,19,160.16,19z"/>
</g>
</svg>
